<?xml version="1.0" encoding="UTF-8"?><svg id="Layer_2" xmlns="http://www.w3.org/2000/svg" viewBox="0 0 1074.59 337.48"><defs><style>.cls-1{fill:#895a3b;}.cls-1,.cls-2,.cls-3{stroke-width:0px;}.cls-2{fill:#0db570;}.cls-3{fill:#000;}</style></defs><g id="Layer_1-2"><path class="cls-1" d="M221.7,228.76c2.05-2.17,4.09-4.57,6.03-7.03,1.94-2.46,3.8-4.98,5.49-7.38.28-.4.56-.8.83-1.19,1.09-1.57,2.11-3.09,3.03-4.48.69-1.05,1.32-2.03,1.89-2.93.76-1.2,1.41-2.24,1.93-3.09.39-.63.7-1.15.93-1.53.23-.38.37-.63.42-.72.28-.48.68-1.09,1.1-1.78.75-1.19,1.58-2.6,2.01-3.9.18-.56.29-1.09.29-1.58,0-.33-.05-.63-.17-.91-.09-.22-.21-.44-.36-.66-.22-.34-.5-.67-.81-1.01-.42-.44-.89-.88-1.37-1.28-.12-.1-.24-.2-.36-.3-.72-.58-1.41-1.07-1.89-1.41-.36-.25-.92.18-1.06.49-3.97,8.95-8.19,15.85-11.55,20.75-.27.4-.54.79-.82,1.17-.27.39-.54.77-.81,1.14-1.08,1.5-2.15,2.92-3.19,4.25-.52.66-1.02,1.3-1.52,1.92s-.98,1.21-1.44,1.77c-.47.56-.92,1.1-1.35,1.62-.86,1.02-1.65,1.94-2.34,2.74-2.95,3.42-6.07,6.58-7.63,8.35-1.65,1.88-4.93,4.51-8.92,7.21-.25.17-.5.34-.76.51-3.06,2.03-6.48,4.06-9.88,5.81-3.4,1.75-6.78,3.2-9.74,4.08-.49.15-.98.27-1.45.39-1.88.45-3.55.61-4.89.41-.34-.05-.65-.13-.94-.22s-.56-.22-.81-.37c-.25-.15-.47-.32-.66-.53-.2-.2-.37-.43-.51-.69-.36-.64-.54-1.47-.52-2.49.03-1.71-.46-1.76-.57-1.85-.09-.07-.22-.09-.39-.06-.08.02-.18.04-.28.08-.4.16-.94.51-1.58,1-.48.37-1.02.83-1.61,1.34-.39.35-.8.72-1.23,1.12-1.29,1.19-2.72,2.6-4.21,4.07-3.46,3.43-7.19,7.23-9.87,9.57-15.49,13.51-40.21,16.82-59.56,11.55-14.42-3.93-24.67-12.1-31.38-19.04-2.24-2.31-4.08-4.48-5.56-6.32-.84-1.05-1.56-1.98-2.17-2.77-.32-.41-.63-.83-.94-1.24-.08-.1-.15-.2-.22-.31-.23-.31-.46-.63-.68-.94-.1-.14-.2-.28-.29-.42-.19-.27-.39-.55-.57-.82-.11-.17-.22-.33-.33-.5-.17-.25-.34-.5-.5-.75-.12-.18-.23-.35-.34-.53-.15-.24-.31-.48-.46-.72-.12-.18-.23-.37-.34-.55-.14-.23-.29-.46-.43-.69-.11-.19-.22-.37-.33-.55-.14-.23-.28-.46-.41-.69-.11-.19-.21-.37-.32-.55-.13-.23-.26-.46-.39-.68-.11-.19-.21-.38-.32-.57-.12-.22-.24-.44-.36-.66-.11-.2-.21-.4-.32-.6-.11-.21-.22-.41-.33-.62-.1-.2-.2-.39-.3-.59-.11-.21-.22-.42-.32-.62-.1-.2-.19-.39-.29-.59-.1-.21-.21-.41-.31-.62-.1-.2-.19-.39-.28-.59-.1-.2-.19-.41-.29-.61-.09-.2-.18-.39-.27-.58-.09-.2-.19-.4-.28-.6-.09-.19-.17-.38-.25-.57-.09-.2-.18-.4-.27-.6-.08-.19-.16-.37-.24-.56-.09-.2-.18-.41-.26-.61-.08-.19-.15-.37-.23-.56-.08-.2-.16-.4-.24-.59-.08-.19-.15-.37-.22-.56-.08-.19-.15-.39-.23-.58-.07-.18-.14-.36-.21-.54-.07-.19-.15-.39-.22-.58-.07-.18-.14-.37-.21-.55-.07-.18-.14-.37-.21-.55-.07-.18-.13-.36-.2-.54-.07-.18-.13-.36-.2-.54-.06-.18-.13-.36-.19-.54-.06-.18-.12-.35-.18-.53-.06-.18-.13-.37-.19-.55-.06-.16-.11-.33-.17-.49-.06-.18-.12-.36-.18-.55-.05-.16-.11-.32-.16-.48-.06-.18-.12-.36-.18-.54-.05-.15-.1-.31-.15-.46-.06-.18-.11-.35-.17-.53-.05-.15-.1-.3-.14-.45-.06-.18-.11-.35-.16-.53-.04-.14-.09-.28-.13-.42-.05-.17-.1-.34-.16-.51-.04-.14-.08-.28-.13-.42-.05-.17-.1-.33-.15-.49-.04-.14-.08-.28-.12-.41-.05-.16-.09-.32-.14-.48-.04-.13-.08-.27-.12-.4-.06-.19-.11-.37-.16-.56-.03-.09-.05-.18-.08-.27-.09-.3-.17-.59-.26-.88,0-.03,0-.07,0-.1,0,0,0-.01,0-.02,0-.19,0-.38,0-.57,0-.2,0-.4,0-.6,0-.21.02-.43.03-.65.01-.21.02-.41.03-.62.02-.22.04-.44.06-.67.02-.21.03-.42.06-.64.02-.22.06-.45.08-.68.03-.22.05-.43.08-.65.03-.23.07-.46.11-.7.04-.22.07-.44.11-.66.04-.24.09-.47.14-.71.04-.22.08-.45.13-.67.05-.24.11-.48.16-.72.05-.23.1-.45.15-.68.06-.24.12-.49.18-.73.06-.23.11-.46.17-.7.06-.25.13-.49.2-.74.06-.23.12-.47.19-.7.07-.25.15-.5.22-.75.07-.24.14-.47.21-.71.08-.25.16-.5.24-.75.08-.24.15-.48.23-.72.08-.25.17-.51.26-.76.08-.24.16-.48.25-.72.09-.26.19-.52.28-.77.09-.24.17-.47.26-.71.1-.26.2-.51.3-.77.09-.24.18-.48.28-.72.1-.26.21-.51.31-.77.1-.24.19-.48.29-.72.11-.26.22-.51.33-.77.1-.24.2-.48.3-.72.11-.26.22-.51.34-.76.11-.24.21-.48.32-.72.11-.25.23-.51.35-.76.11-.24.22-.48.33-.72.12-.25.24-.5.36-.75.11-.24.23-.48.34-.72.12-.26.25-.51.38-.77.11-.23.22-.46.34-.68.13-.25.26-.5.38-.75.12-.23.23-.46.35-.69.13-.24.25-.48.38-.72.12-.23.24-.47.37-.7.13-.25.27-.5.41-.75.12-.22.23-.43.35-.65.14-.25.28-.5.42-.75.12-.21.23-.42.35-.62.14-.24.27-.47.41-.71.12-.21.25-.43.37-.64.15-.26.3-.51.46-.76.11-.18.22-.37.33-.55.16-.27.33-.53.49-.8.1-.16.2-.33.3-.49.16-.25.31-.49.47-.74.11-.17.22-.34.33-.51.15-.24.3-.46.46-.7.11-.17.23-.35.34-.52.19-.28.38-.56.56-.83.08-.11.16-.23.23-.34.25-.37.51-.73.76-1.08.01-.02.02-.03.03-.05.26-.37.53-.73.79-1.09,6.29-8.49,12.42-13.85,17.83-18.52,12.65-10.92,24.41-17.27,30.15-20.14,3.43-1.71,6.29-2.97,8.94-4,.33-.13.66-.25.98-.38.65-.24,1.29-.48,1.92-.7,1.58-.56,3.14-1.07,4.75-1.58.64-.2,1.3-.41,1.97-.62.67-.21,1.35-.42,2.06-.65.7-.22,1.43-.45,2.18-.69.75-.24,1.53-.5,2.34-.76.81-.27,1.65-.55,2.53-.86s1.79-.63,2.75-.97c1.92-.69,4-1.47,6.31-2.37,0,0,.01,0,.02,0,.7-.27,1.39-.55,2.08-.82.18-.07.35-.14.53-.21.68-.27,1.35-.55,2.02-.82.03-.01.06-.02.08-.03.64-.27,1.28-.53,1.91-.79.17-.07.34-.14.5-.21.64-.27,1.27-.54,1.9-.81.04-.02.08-.04.12-.05.6-.26,1.18-.51,1.76-.77.15-.07.31-.13.46-.2.15-.06.29-.13.43-.19.98-.46.37-1.95-.66-1.57-.29.1-.58.21-.87.32-.34.12-.67.24-1.01.37-.35.13-.71.25-1.06.38-.3.11-.6.21-.9.32-.48.17-.97.34-1.46.52-.18.06-.36.13-.55.19-.68.24-1.37.48-2.07.72-1.71.59-3.34,1.14-4.88,1.65-.77.26-1.52.5-2.25.74-1.46.48-2.84.91-4.16,1.32-3.28,1.02-6.13,1.85-8.67,2.56-.51.14-1,.28-1.49.41-.24.07-.48.13-.72.2-1.42.39-2.75.74-4.02,1.07-.63.17-1.25.33-1.85.48-6.43,1.69-11.39,3.05-19.27,6.53-10.69,4.71-26.78,12.01-40.97,28.08,0,0,0,0,0,0-9.2,10.42-17.35,29.05-22.71,30.69-4.92,1.51-6.97-1.24-7.96-3.5-.06-.14-.12-.29-.18-.43-3.48-7.08-2.88-20.29-2.77-22.34,0,0,0,0,0,0,.69-13,3.77-25.1,7.57-35.44.17-.47.35-.94.52-1.4.88-2.31,1.79-4.53,2.71-6.65.18-.42.37-.84.56-1.26.37-.83.74-1.64,1.12-2.44s.75-1.57,1.12-2.34c.37-.76.74-1.5,1.11-2.23.18-.36.37-.72.55-1.07.37-.71.73-1.39,1.09-2.06,1.79-3.33,3.48-6.17,4.9-8.44.28-.45.56-.88.82-1.29.13-.2.26-.4.38-.59.25-.38.49-.74.71-1.08.56-.84,1.04-1.52,1.4-2.05.44-.63.73-1.02.84-1.16,4.7-6.22,9.69-11.69,14.76-16.51.42-.4.85-.8,1.27-1.19.85-.78,1.7-1.55,2.55-2.3,2.13-1.87,4.26-3.63,6.38-5.29.85-.66,1.7-1.31,2.54-1.94,1.27-.94,2.53-1.85,3.78-2.73.84-.58,1.67-1.15,2.5-1.7.41-.28.83-.55,1.24-.81,1.65-1.07,3.27-2.08,4.87-3.03.78-.47,1.12-.74,1.12-.84,0-.11-.48.02-1.27.38-.34.15-.74.35-1.18.58-2.44,1.28-4.78,2.62-7,3.99-.56.34-1.11.68-1.65,1.03-9.23,5.83-16.53,11.91-21.94,15.72-.32.22-.63.44-.93.65-2.75,1.87-4.96,3.06-6.66,3.2-.24.02-.5.04-.77.05-1.17.07-2.59.17-3.6.59-.14.06-.26.12-.38.19-.12.07-.23.15-.33.23-.6.48-.89,1.09-1.01,1.42-.24.67-.59,1.55-1.04,2.59-.72,1.67-1.67,3.77-2.76,6.14-2.59,5.62-5.96,12.74-8.78,19.2-4.33,9.88-9.83,22.47-13.31,34.32-1.57,5.37-4.84,16.89-5.63,31.95-.04.72-.07,1.44-.1,2.18-.05,1.47-.08,2.96-.08,4.49,0,.76,0,1.53.02,2.31.04,2.33.15,4.73.34,7.17.25,3.26.64,6.63,1.2,10.07.94,5.78,3.04,17.95,9.45,31.86,2.14,4.64,4.75,9.47,7.96,14.33,1.83,2.78,3.86,5.56,6.11,8.32,3.33,4.09,7.06,8.05,11.11,11.79,2.7,2.5,5.54,4.9,8.49,7.19.98.76,1.98,1.51,2.98,2.25,1.01.74,2.02,1.46,3.05,2.16,1.54,1.06,3.11,2.09,4.69,3.08.53.33,1.06.66,1.59.98,1.06.65,2.14,1.27,3.22,1.89.54.31,1.08.61,1.62.9,3.26,1.78,6.58,3.41,9.93,4.85,1.67.72,3.36,1.4,5.04,2.02,3.94,1.46,7.89,2.67,11.83,3.57,1.69.39,3.37.72,5.04.99,2.23.37,4.45.63,6.65.78,1.1.08,2.19.13,3.28.15s2.17.01,3.24-.02c.54-.02,1.07-.04,1.6-.08,1.06-.07,2.12-.16,3.17-.29.52-.06,1.04-.13,1.56-.21,3.63-.55,7.14-1.47,10.49-2.8,1.06-.42,2.23-.93,3.48-1.53.63-.3,1.27-.61,1.94-.95s1.35-.69,2.06-1.06c6.33-3.33,14.05-8.06,21.48-13.26,1.24-.87,2.47-1.75,3.69-2.64.41-.3.81-.59,1.21-.89.8-.6,1.6-1.2,2.38-1.8,4.23-3.24,9.03-7.23,16.02-11.87,1.61-1.07,3.34-2.18,5.21-3.32.78-.48,1.56-.95,2.34-1.4.24-.14.49-.28.73-.43.54-.31,1.07-.62,1.6-.93.27-.16.55-.31.82-.47.51-.29,1.01-.57,1.51-.85.26-.15.53-.29.79-.44.13-.07.27-.15.4-.22.93-.5.28-1.91-.7-1.55-.11.04-.21.08-.32.12-.26.1-.53.21-.79.31-.19.08-.38.15-.57.23-.27.11-.55.22-.83.34-.18.08-.37.15-.55.23-.31.13-.62.26-.93.39-.16.07-.32.13-.48.2-.46.2-.93.4-1.41.61-.01,0-.02.01-.03.02-25.45,11.3-41.43,27.87-42.75,26.45-.05-.05-.07-.12-.08-.2-.09-1.26,4.09-6.07,4.55-6.6,5.99-6.91,13.21-11.8,27.1-18.35,5.75-2.71,8.47-3.73,10.79-4.61.15-.05.29-.11.43-.16.29-.11.57-.21.85-.32.14-.05.28-.11.43-.17.29-.11.58-.23.88-.35.75-.31,1.56-.65,2.51-1.09.95-.44,2.03-.96,3.34-1.62,1.88-.95,3.68-1.88,5.4-2.8.57-.31,1.14-.61,1.69-.91,1.67-.91,3.25-1.81,4.73-2.69,1.49-.88,2.88-1.75,4.16-2.61,2.57-1.71,4.72-3.36,6.37-4.97.69-.67,1.37-1.36,2.06-2.09Z"/><path class="cls-1" d="M223.46,235.15c-2.16,2.11-1.56,3.63-.86,3.75,1.3.22,2.71-.06,7.86-3.78,0,0,12.13-8.76,20.29-19.65,1.02-1.36,2.65-3.71,3.04-6.97.08-.71.09-1.29.09-1.64-.43-1.16-.68-1.59-1.21-2.05-.42-.36-1.81-1.55-3.13-1.31-.9.16-1.31.9-2.61,2.84-.9,1.35-1.91,2.62-2.78,3.99-1.3,2.06-2.64,4.11-4.05,6.11-2.94,4.14-7.61,9.9-16.63,18.71Z"/><path class="cls-3" d="M314.09,195.11c-.87-.71-2.21-1.04-3.34-.61-2.46.95-3.55,5.4-1.49,7.38,1.14,1.09,3.15,1.33,4.52.52,2.35-1.4,2.38-5.62.31-7.29Z"/><path class="cls-3" d="M260.86,154.74l-.15-.12s.15.11.15.12Z"/><path class="cls-3" d="M313.21,177.81c-.78-.36-1.87-.39-2.62.17-1.58,1.19-1.31,4.72.58,5.59,1.04.48,2.49.11,3.26-.81,1.25-1.5.48-4.15-1.22-4.95Z"/><path class="cls-3" d="M310.05,213.36c-1.11-.15-1.74.79-1.8,1.27-.82,5.78-7.63,39.25-34.07,66.92-14.73,15.42-51.51,43.18-75.68,41.11-2.29-.2-11.5-1.67-15.42,3.22-1.65,2.05-2.65,5.58-1.38,7.6,3.97,6.28,30.03-2.24,46.03-9.67,32.37-15.02,52.38-38.43,57.73-45.46,16.24-21.34,27.18-50.41,27.76-61.14.11-2.01-.82-3.54-3.17-3.86Z"/><path class="cls-3" d="M312.87,152.16c-.19-.96-.64-2.91-.9-3.85-1.2-4.98-2.87-10.3-4.59-15.12-3.73-9.85-8.23-19.46-14.66-27.87-.83-.99-2.28.2-1.53,1.2,1.76,2.54,3.34,5.47,4.77,8.26,4.23,8.58,7.42,17.76,9.56,27.08.71,2.87,1.36,6.46,1.9,9.38.29,2.15.83,5.42,1.04,7.58.15,1.43.44,4.56.61,6.02.8,3.93,6.48,2.96,5.95-.99,0,0-.65-3.91-.65-3.91-.32-2.22-1.02-5.57-1.5-7.77Z"/><path class="cls-2" d="M219.64,102.54c3.16,5.4,8.54,7.37,11.29,8.37,3.18,1.16,5.99,1.49,7.87,1.59-1.36-.85-3.33-2.27-5.27-4.44-1.75-1.96-2.69-3.65-3.05-4.25-1.52-2.53-4.88-5.9-13.13-9.33.16,3.95,1.47,6.66,2.28,8.06Z"/><path class="cls-2" d="M253.08,101.27c-2.49-2.07-2.78-4.1-4.19-6.15-3.3-4.8-9.96-5.68-12.63-6.03-7.32-.96-12.88,2-14.66,3.05,4.78,3.35,9.12,5.58,12.37,7.04,5.39,2.42,11.22,4.97,18.97,4.95,2.12,0,3.88-.2,5.08-.38-1.34-.35-3.2-1.02-4.95-2.47Z"/><path class="cls-2" d="M173.85,73.85c.61,1.1,1.52,1.39,1.52,1.39.9.28,1.76-.13,2.09-.28,1.87-.89,7.82-7.09,8.1-17.18.07-2.59-.19-6.84-2.36-11.85-.06,7.04-1.84,11.86-3.47,14.97-2.44,4.69-7.19,10.61-5.89,12.96Z"/><path class="cls-2" d="M165.19,59.44c-1.33,4.79-1.01,9.39-.9,10.6.39,4.46,1.82,9.56,2.91,9.49.95-.06.6-3.94,2.43-9.01,2.2-6.11,5.33-7.76,8.11-12.27,2.18-3.54,4.3-9.1,3.74-17.81-1.97,1.09-13.07,7.42-16.29,18.99Z"/><path class="cls-2" d="M243.82,106.54c-3.24-.82-5.87-2.02-7.85-3.13.66,1.75,1.84,4.09,3.98,6.24,1,1,1.78,1.79,3.07,2.3,2.73,1.09,5.42.07,7.84-.84,1.57-.6,4.05-1.76,6.6-4.06-3.02.52-7.93.94-13.64-.51Z"/><path class="cls-2" d="M234.95,58.37s-3.91.27-9.66,5.06c-.34.28-.85.76-.79,1.3.05.48.53.83.98,1.07,7.34,3.93,14.5,4.55,14.5,4.55,6.68.59,10.39.91,15.76.11,5.78-.86,10.4-2.55,13.59-4-4.79-.52-8.73-1.22-11.58-1.8-4-.81-7.85-1.59-12.75-3.23-6.63-2.22-7.07-3.29-10.05-3.08Z"/><path class="cls-2" d="M266.9,7.5c-.39-.22-.84-.11-1.07-.06-4.48.95-7.13,1.56-9.48,3.37-3.46,2.67-2.84,5.35-6.67,16.05-3.09,8.64-5.28,11.85-3.97,12.99,1.75,1.53,8.59-2.79,12.88-6.94,1.37-1.32,2.36-2.51,2.96-3.29,0,0,6.03-7.7,6.06-20.01,0-1.29-.3-1.88-.71-2.11Z"/><path class="cls-2" d="M229.69,26.17c-9.93,11.66-14.59,28.53-10.85,31.06,2.94,1.99,11.46-4.91,16.08-10.69,4.41-5.53,6.17-11.16,8.25-17.86,1.91-6.15,2.86-11.46,3.36-15.28-4.57,2.17-11.1,6.02-16.84,12.76Z"/><path class="cls-2" d="M280.17,30.09c.55,1.59,4.1,1.98,11.21,2.76,2.54.28,4.76.4,6.54.44.26,0,.92-.27,1-.44,1.63-3.27,3.29-7.12,4.73-11.51,1.12-3.41,1.95-6.61,2.52-9.53.06-.28-.04-.61-.43-.8-3.06-1.48-5.86-2.37-8.1-2.99-1.8-.5-6.24-1.63-12.22-1.83-4.86-.16-7.3-.25-8.91.93-2.42,1.76-1.77,4.01-4.21,11.39-2.12,6.42-3.96,8.64-3.11,9.41,1.19,1.07,5.25-2.72,13.74-7.04,6.68-3.41,13.03-5.59,13.38-4.92.61,1.16-17.51,10.18-16.14,14.14Z"/><path class="cls-2" d="M275.37,62.37c3.3-.6,5.52-2.46,6.51-3.31,1.84-1.58,4.16-3.46,3.77-5-.38-1.46-2.93-1.7-7.31-2.53-3.74-.71-20.28-4.05-23.97-5.17-.44-.13-1.78-.56-3.37-.2-.59.13-1.17.36-1.75.71-3.03,1.81-4.58,2.61-7.4,4.62-1.17.83-1.88,1.37-1.8,1.98.09.68,1.1,1.06,1.54,1.23,14.58,5.41,29.44,7.7,29.44,7.7.76.12,2.34.36,4.34,0Z"/><path class="cls-2" d="M260.17,40.34c-.22.23-.62.7-.25,1.04.68.62,2.43,1.08,2.89,1.23,6.32,2.12,11.21,3.28,17.75,4.44,3.81.67,8.91,1.77,10.68.82,1.79-.96,2.53-2.9,3.65-5.94.26-.7.54-1.61.11-2.28-.39-.61-1.18-.75-1.48-.8-1.85-.32-11.72-2.48-13.64-2.84-4.08-.76-7.74-1.54-10.46-1.05-2.44.44-4.09,1.54-5.02,2.17-.79.54-3.11,2-4.24,3.21Z"/><path class="cls-3" d="M137.36,278.95c-.94-2.42-15.09,2.57-27.64,3.22-18.83.98-33.47-7.87-43.3-13.82-27.23-16.46-38.6-41.53-43.3-52.28-9.68-22.13-10.9-42.48-10.47-55.49-1.05,7.54-1.83,18.41-.14,31.25,3.81,29.02,17.73,49.31,25.36,58.79,6.93,8.61,20.19,25.11,43.65,33.58,21.42,7.74,43.04,5.8,52.85-1.57.79-.59,3.43-2.57,2.99-3.69Z"/><path class="cls-2" d="M156.4,136.93c3.65-.22,4.3-1.48,9.58-2.3,2.61-.41,4.78-.48,6.18-.48-1.31-1.22-3.28-2.81-5.94-4.2-1.81-.95-5.21-2.69-9.82-2.93-4.21-.22-10.62.77-11.24,3.56-.22.99.35,1.88.76,2.52,2.68,4.18,9.74,3.86,10.48,3.81Z"/><path class="cls-1" d="M150.45,298.39s-.03.02-.05.03c-.14.1-.28.2-.43.31-.04.03-.09.06-.13.09-.17.12-.35.25-.54.37-.02.02-.05.03-.07.05-.17.12-.35.23-.53.35-.05.03-.1.07-.16.1-.21.14-.42.27-.65.41-.02.01-.05.03-.07.05-.21.13-.42.26-.64.39-.06.04-.12.07-.19.11-.25.15-.5.29-.76.44-.02.01-.05.03-.08.04-.24.14-.49.27-.75.41-.07.04-.14.08-.21.11-.28.15-.57.3-.87.45-.03.01-.05.03-.08.04-.28.14-.57.28-.86.42-.08.04-.16.08-.24.12-.32.15-.65.31-.99.46-.02,0-.04.02-.06.03-.32.14-.65.29-.99.43-.09.04-.18.08-.27.12-.36.15-.73.3-1.11.45-.02,0-.04.02-.06.02-.36.14-.73.28-1.11.42-.1.04-.2.07-.3.11-.4.15-.81.29-1.23.43-.01,0-.02,0-.04.01-.41.14-.83.27-1.25.41-.11.04-.23.07-.34.11-.44.14-.89.27-1.34.4,0,0,0,0,0,0-.86.24-1.69.46-2.5.66-1.21.3-2.37.55-3.47.76-.73.14-1.44.26-2.12.37-.34.05-.68.1-1,.15-2.63.38-4.83.53-6.58.62-.73.04-1.45.06-2.16.08-.23,0-.45,0-.67,0-.49,0-.98.01-1.46,0-.25,0-.5,0-.75,0-.47,0-.93-.02-1.39-.03-.23,0-.46-.01-.69-.02-.53-.02-1.06-.05-1.58-.08-.14,0-.29-.01-.43-.02-.66-.04-1.31-.09-1.96-.15-.16-.01-.32-.03-.48-.05-.48-.05-.96-.09-1.43-.15-.22-.02-.43-.05-.65-.08-.42-.05-.83-.1-1.24-.16-.21-.03-.43-.06-.64-.09-.43-.06-.85-.13-1.27-.19-.17-.03-.34-.05-.51-.08-.58-.1-1.15-.2-1.71-.3-.05,0-.1-.02-.16-.03-.5-.1-1-.19-1.49-.29-.17-.04-.34-.07-.51-.11-.36-.08-.72-.16-1.08-.24-.18-.04-.36-.08-.54-.13-.35-.08-.68-.16-1.02-.25-.16-.04-.32-.08-.47-.12-.4-.1-.8-.21-1.19-.31-.07-.02-.15-.04-.22-.06-.46-.12-.9-.25-1.33-.37-.12-.03-.23-.07-.35-.1-.31-.09-.61-.18-.91-.27-.14-.04-.27-.09-.41-.13-.27-.08-.53-.17-.78-.25-.07-.02-.15-.05-.22-.07-.96-.32-1.57,1.01-.71,1.54.02.01.04.03.06.04.13.08.26.15.4.23.11.07.23.13.35.2.14.08.29.16.43.24.12.07.24.13.36.2.15.08.3.16.45.24.13.07.25.14.39.21.15.08.32.16.47.25.14.07.27.14.41.21.16.08.33.16.5.25.14.07.28.14.43.21.17.08.36.17.53.25.15.07.29.14.44.21.19.09.38.17.57.26.15.07.3.14.46.21.19.08.39.17.59.25.16.07.32.14.48.21.2.08.41.17.62.25.17.07.33.14.5.2.21.08.43.17.65.25.17.07.34.13.51.2.23.09.46.17.69.25.17.06.34.13.52.19.25.09.5.17.75.26.17.06.34.12.51.17.26.09.52.17.79.25.17.06.34.11.52.17.28.09.56.17.85.26.17.05.33.1.5.15.33.1.67.19,1.01.28.13.04.26.07.39.11.47.13.96.25,1.45.37,11.72,2.91,28.03,3.95,38.64-1.98.27-.15.52-.31.77-.48.07-.05.13-.09.2-.14.2-.14.4-.29.59-.45.04-.03.09-.07.13-.1.23-.19.44-.38.65-.59.05-.05.1-.1.15-.15.17-.17.33-.34.49-.51.05-.05.1-.11.15-.16.19-.22.38-.44.55-.67.03-.04.06-.08.09-.12.15-.2.29-.4.43-.6.04-.07.09-.13.13-.2.15-.23.3-.45.44-.69,0-.01.02-.03.02-.04.15-.24.29-.49.42-.74.04-.07.07-.13.11-.2.11-.2.21-.41.31-.61.02-.05.05-.1.07-.15.12-.25.23-.49.34-.74.03-.06.05-.12.08-.18.08-.2.17-.4.24-.59.02-.06.05-.13.07-.19.09-.24.18-.48.27-.72.01-.03.02-.06.03-.1.07-.21.14-.41.21-.62.02-.06.04-.13.06-.19.07-.21.13-.41.19-.61,0-.02.01-.04.02-.06.06-.22.12-.43.18-.64.02-.06.03-.11.04-.16.04-.16.09-.32.13-.48,0-.03.01-.06.02-.08.2-.78-.69-1.37-1.33-.9Z"/><path class="cls-3" d="M170.16,330.66c-1.51-16.72,20.05-23.5,20.21-23.91.4-1.01-2.11-3.82-7.16-6.2-10.44-4.92-20.26-.56-22.39-4.62-.27-.52-.62-1.56.2-3.99,2.18-6.5,8.48-10,26.29-19.55,10.64-5.71,18.31-9.82,28.56-9.24,6.07.34,5.86,1.94,18.33,3.69,10.9,1.53,18.03,1.35,20.18,1.28,5.92-.21,9.82-.66,13.45-1.45.92-.2,1.94-.64,2.2-1.32.45-1.18.73-2.51-.02-3.6-1-1.46-3.49-1.34-4.49-1.3-6.38.28-25.64,1.01-37.71-4.55-2.04-.94-3.57-1.91-3.98-3.48-.89-3.44,4.23-7.38,9.42-11.67,5.04-4.17,12.63-10.45,18.5-16.63,11.32-11.92,10.98-17.96,17.57-23.2.79-.63,3.44-2.64,3.56-5.4,0,0,.21-2.14-1.7-4.64-.41-.54-.74-.72-1.17-.77-.82-.1-1.52.66-3.45,2.87-1.16,1.34-1.74,2-1.85,2.15-4.15,5.4-5.39,8.37-6.84,8.14-.71-.11-.67-.84-2.06-2.11-.64-.58-4.19-2.36-6.33-3.26-.16-.07-.11-.76.05-1.05,1.05-1.89,1.78-4.03,2.47-6.06.53-1.57.46-1.9.36-2.14-.47-1.08-1.98-2.01-6.63-2.73-3.87-.6.88-5.05,1.16-7.14.55-1.31.34-2.81-.54-3.91-.8-1.01-2.06-1.54-3.33-1.44-.31.02-.58.22-.71.5-5.81,12.58-12.09,22.19-16.93,28.82-3.96,5.42-15.33,20.29-34.16,32.03-9.65,6.01-12.35,5.65-13.42,4.73-1.84-1.58-.39-6.09,4.12-18.61,3.04-8.42,5.68-15.52,7.67-20.81.15-.4-.02-.84-.39-1.05-1.6-.88-3.21-1.76-4.81-2.63-.48-.26-1.08-.01-1.23.51-1.47,5.24-3.84,12.46-7.65,20.63-7.77,16.67-17.84,37.87-40.21,47.65-27.88,12.19-55.45-1.94-57.42-2.99-31.24-16.63-35.69-50.75-36.08-54.4,0-.08,0-.16,0-.25,2.08-11.06,6.87-27.08,18.63-42.64,6.82-9.03,21.95-29.04,48.05-33.26,12.59-2.04,23.24.32,29.67,2.34.11.03.21.09.29.17,1.77,1.53,4.08,3.15,7,4.39,1.87.8,8.28,3.44,15.4,1.68,3.31-.82,3.53-1.79,7.63-2.75,2.81-.66,5.33-.82,7.29-.79.66,0,1.08-.72.74-1.29-2.4-3.96-5.18-6.23-6.81-7.38-9.14-6.43-19.79-4.08-20.89-3.81-4.9,1.17-5.33,2.9-9.61,3.36-5.01.53-9.46-1.31-12.78-3.31-.58-.35-.55-1.21.07-1.5,3.98-1.91,11.03-5.28,14.16-6.78,16.85-8.07,25.29-12.11,25.66-12.34,0,0,25.04-13.66,31.68-17.31.11-.06.56-.16.67-.14.93.14,2.2.44,3.56,1.12,1.65.82,2.81,1.89,3.59,2.75,3.41,3.74,9.6,14.25,11.19,16.62,6.09,9.11,20.47,12.24,31.27,10.37,9.49-1.64,15.89-7.1,18.97-10.24.37-.38.32-1-.12-1.3-.71-.49-1.57-1.12-2.53-1.88-7.63-6.08-8.43-10.63-12.83-14.4-6.19-5.32-14.84-5.08-18.59-4.97-9.74.28-15.02,5.02-19.75,1.68-.35-.25-4.05-2.92-3.55-5.61.13-.7.51-1.21.81-1.55,3.58-4.05,11.05-4.43,11.05-4.43,8.49-.43,14.33,1.53,19.67,2.44,10.95,1.87,19.95-.65,24.71-1.98,15.71-4.4,25.32-15,28.37-18.45,11.11-12.57,14.76-27.09,18.3-41.18.86-3.42,1.46-6.33,1.85-8.44.08-.41-.16-.82-.56-.96-4.48-1.57-11.6-3.7-20.51-4.79-7.53-.92-43.91-5.37-65.46,16.96-3.34,3.47-9.94,10.31-13.24,21.01-3.03,9.84-1.8,18.19-8.39,28.22-2.03,3.09-4.15,5.34-5.65,6.78-.02.02-.04.03-.06.05-2.72,2.24-6.73,4.7-12.57,7.41-4.51,2.1-8.7,4.24-12.54,3.21-.33-.09-.59-.39-.61-.74-.03-.72.51-1.3,1.06-1.78.04-.03.08-.06.12-.09,2.65-1.64,5.96-4.26,8.57-8.31,8.21-12.72,1.99-27.9,1.24-29.72-1-2.44-1.55-4.26-1.57-6.56,0-.59-.57-1.01-1.12-.82-3.22,1.11-8.46,3.43-13.33,8.3-1.99,1.99-7.62,7.61-9.15,16.17-.93,5.19-1.21,16.22,2,22.65.28.57,1.28,2.66.74,5.01,0,0-.3,1.31-1.2,2.5-4.68,6.22-44.88,18.99-44.88,18.99-15.19,4.82-26.66,10.62-33.39,14.06-8.24,4.21-15.05,8.29-20.2,11.58-.49.31-1.14.06-1.28-.5-.12-.45-.24-.97-.37-1.54-1.59-7.11-1.17-12.9-.81-17.38.2-2.52.59-5.83,1.37-9.69.11-.56-.35-1.07-.92-1.01l-2.43.24c-.41.04-.74.37-.77.78-.42,5.71-1.42,12.9-3.7,20.96-.83,2.95-3.25,11.02-8.29,20.72-3.65,7.02-9.74,16.94-19.61,27.16-.74.68-1.3.1-1.48-.31-7.15-15.97,1.59-35.99,6.12-51.97,0-.02,0-.03.02-.05,6.89-20.07,21.63-36.36,38.66-48.59.03-.02.06-.04.09-.06,1.36-.76,2.82-1.48,4.36-2.13,11.64-4.97,23.1-4.27,31.02-2.78.39.07.78-.13.94-.5.19-.45.37-1.06.4-1.78.02-.54-.05-1.01-.14-1.38-.07-.3-.3-.54-.6-.62-3.7-1.04-8-1.99-12.84-2.62-3.56-.46-6.87-.68-9.89-.73-.78-.02-1.14-.97-.56-1.49,3.28-2.95,7.39-6.37,12.33-9.92,9.34-6.7,17.13-10.59,18.78-11.41,7.29-3.6,18.68-8.25,33.83-10.77.28-.05.51-.22.63-.48.24-.51.54-1.4.35-2.48-.18-1.08-.76-1.82-1.17-2.24-.23-.23-.57-.31-.88-.2-6.05,2.03-11.15,3.4-14.99,4.32-5.44,1.31-9.05,1.88-12.71,2.17-.42.03-.82.06-1.18.08-.68.04-1.13-.69-.79-1.28.36-.62.82-1.35,1.39-2.13,2.7-3.71,5.57-5.49,10.98-10.84,1.55-1.53,3.16-3.06,2.73-4.2-.23-.62-1.04-1.06-1.72-1.13-.95-.1-1.74.46-2.07.71-15.5,11.87-19.19,17.16-19.19,17.16-6.39,9.15-8.58,4.26-38.44,24.74-13.83,9.49-23.83,17.73-26.79,15.18-.71-.61-.76-1.62-.78-2.63-.18-13.68,5.53-25.77,6.97-40.63.11-1.1.17-2.03.21-2.67.02-.29-.11-.57-.35-.74-.76-.54-1.82-1.18-3.2-1.65-1.09-.38-2.09-.55-2.91-.63-.49-.05-.92.35-.92.84,0,1.86-.11,3.91-.42,6.11-.76,5.43-2.43,9.88-4.03,13.2-.25.52-.93.64-1.35.25-.54-.5-1.1-1.06-1.64-1.71-2.44-2.92-3.44-6.08-3.88-8.25-.1-.48-.58-.78-1.06-.65-.51.14-1.11.37-1.74.73-.61.35-1.1.74-1.47,1.1-.29.28-.34.74-.11,1.08,3.52,5.41,5.14,10.27,5.96,13.47,2.99,11.75.09,21.64-1.03,27.35-3.57,18.15-16.55,42.13-20.28,48.97-8.92,16.34-25.85,79.69,7.6,137.41,31.01,53.52,85.32,67.98,104.61,73.11,21.99,5.85,46.53,7.03,47.19,3.79.12-.59-1.16-1.16-1.51-5.05ZM145.16,130.6c.63-2.79,7.03-3.78,11.24-3.56,4.61.24,8.01,1.98,9.82,2.93,1.68.88,3.09,1.84,4.22,2.73.62.49.31,1.48-.48,1.52-1.14.06-2.49.18-3.98.42-5.28.82-5.93,2.08-9.58,2.3-.74.04-7.8.37-10.48-3.81-.41-.64-.98-1.54-.76-2.52ZM250.86,111.11c-2.42.92-5.12,1.94-7.84.84-1.29-.52-2.07-1.3-3.07-2.3-1.31-1.31-2.25-2.69-2.94-3.96-.39-.72.37-1.52,1.11-1.18,1.62.75,3.53,1.48,5.71,2.03,4.08,1.03,7.75,1.11,10.62.89.87-.07,1.26,1.08.54,1.56-1.61,1.07-3.06,1.72-4.11,2.12ZM236.27,89.09c2.67.35,9.33,1.22,12.63,6.03,1.41,2.05,1.69,4.08,4.19,6.15.58.48,1.18.88,1.76,1.21.76.42.51,1.57-.36,1.61-.48.02-1,.04-1.53.04-7.75.02-13.58-2.53-18.97-4.95-2.99-1.34-6.89-3.34-11.22-6.25-.54-.36-.5-1.18.08-1.47,2.5-1.27,7.35-3.16,13.42-2.37ZM230.49,103.81c.36.6,1.3,2.3,3.05,4.25.91,1.02,1.83,1.88,2.7,2.59.67.55.17,1.64-.69,1.5-1.38-.24-2.95-.62-4.61-1.23-2.75-1.01-8.13-2.98-11.29-8.37-.71-1.21-1.8-3.43-2.17-6.6-.08-.66.59-1.16,1.2-.89,7.3,3.23,10.39,6.37,11.82,8.76ZM255.73,70.48c-5.37.8-9.08.47-15.76-.11,0,0-7.16-.63-14.5-4.55-.46-.24-.93-.59-.98-1.07-.06-.54.46-1.02.79-1.3,5.76-4.79,9.66-5.06,9.66-5.06,2.98-.21,3.42.87,10.05,3.08,4.9,1.64,8.75,2.42,12.75,3.23,2.18.44,5.01.96,8.36,1.41.88.12,1.03,1.33.2,1.64-2.86,1.08-6.41,2.13-10.57,2.74ZM281.88,59.06c-.99.85-3.2,2.71-6.51,3.31-2,.36-3.58.12-4.34,0,0,0-14.87-2.29-29.44-7.7-.44-.16-1.45-.55-1.54-1.23-.08-.61.63-1.14,1.8-1.98,2.82-2.01,4.37-2.81,7.4-4.62.58-.34,1.15-.58,1.75-.71,1.6-.35,2.93.07,3.37.2,3.7,1.12,20.23,4.46,23.97,5.17,4.37.83,6.93,1.07,7.31,2.53.4,1.55-1.93,3.42-3.77,5ZM294.9,41.93c-1.12,3.04-1.86,4.98-3.65,5.94-1.78.95-6.88-.14-10.68-.82-6.54-1.15-11.43-2.32-17.75-4.44-.45-.15-2.21-.61-2.89-1.23-.38-.34.03-.81.25-1.04,1.13-1.21,3.44-2.67,4.24-3.21.93-.63,2.58-1.73,5.02-2.17,2.71-.49,6.38.29,10.46,1.05,1.92.36,11.79,2.52,13.64,2.84.3.05,1.1.19,1.48.8.43.67.15,1.58-.11,2.28ZM272.3,18.51c2.44-7.38,1.8-9.62,4.21-11.39,1.61-1.18,4.04-1.1,8.91-.93,5.98.2,10.42,1.33,12.22,1.83,2.24.62,5.04,1.51,8.1,2.99.39.19.49.52.43.8-.57,2.92-1.41,6.12-2.52,9.53-1.44,4.39-3.09,8.23-4.73,11.51-.08.17-.74.45-1,.44-1.79-.05-4.01-.16-6.54-.44-7.11-.78-10.66-1.17-11.21-2.76-1.37-3.96,16.75-12.98,16.14-14.14-.35-.66-6.7,1.51-13.38,4.92-8.48,4.33-12.55,8.12-13.74,7.04-.85-.77.98-2.99,3.11-9.41ZM256.34,10.81c2.36-1.82,5.01-2.43,9.48-3.37.24-.05.68-.16,1.07.06.41.24.71.82.71,2.11-.03,12.31-6.06,20.01-6.06,20.01-.61.78-1.59,1.96-2.96,3.29-4.29,4.14-11.13,8.47-12.88,6.94-1.3-1.14.88-4.35,3.97-12.99,3.83-10.69,3.21-13.38,6.67-16.05ZM229.69,26.17c5.15-6.05,10.94-9.78,15.38-12.05.62-.32,1.33.2,1.23.89-.55,3.64-1.48,8.34-3.13,13.67-2.08,6.69-3.83,12.33-8.25,17.86-4.62,5.78-13.14,12.68-16.08,10.69-3.75-2.53.92-19.41,10.85-31.06ZM246.92,206.35c1.3-1.94,1.71-2.68,2.61-2.84,1.33-.24,2.72.96,3.13,1.31.51.44.76.85,1.16,1.9.04.09.06.2.06.3,0,.35-.01.87-.09,1.48-.39,3.26-2.02,5.61-3.04,6.97-8.16,10.89-20.29,19.65-20.29,19.65-5.15,3.72-6.55,3.99-7.86,3.78-.7-.12-1.3-1.64.86-3.75,9.01-8.81,13.69-14.57,16.63-18.71,1.41-1.99,2.75-4.04,4.05-6.11.87-1.37,1.88-2.64,2.78-3.99ZM185.57,57.77c-.28,10.09-6.23,16.29-8.1,17.18-.33.16-1.19.57-2.09.28,0,0-.92-.29-1.52-1.39-1.3-2.35,3.45-8.27,5.89-12.96,1.28-2.45,2.65-5.97,3.21-10.79.11-.93,1.43-1.02,1.67-.12.87,3.23.99,5.94.94,7.79ZM165.19,59.44c2.79-10.03,11.51-16.13,15.06-18.28.56-.34,1.27.05,1.3.71.25,7.9-1.75,13.05-3.81,16.39-2.78,4.51-5.91,6.16-8.11,12.27-1.82,5.07-1.48,8.95-2.43,9.01-1.09.07-2.52-5.03-2.91-9.49-.11-1.21-.43-5.81.9-10.6ZM31.61,253.75c-17.96-22.08-22.08-45.7-23.51-54.51-4.47-27.52,1.86-49.99,4.25-58.17,3.47-11.85,8.98-24.44,13.31-34.32,4.76-10.88,11.05-23.63,12.58-27.93.16-.44.63-1.38,1.72-1.84,1.23-.52,3.11-.54,4.36-.64,6.03-.48,18.65-14.3,38.19-24.57,2.37-1.25,3.42-1.36,1.34-.12-12.77,7.62-27.35,18.92-39.89,35.51-1.13,1.49-23.41,31.66-25.41,69.49-.11,1.99-.36,15.24,2.95,22.77.99,2.26,3.05,5.01,7.96,3.5,5.36-1.64,13.51-20.27,22.71-30.69,14.19-16.07,30.28-23.37,40.97-28.08,15.75-6.95,19.87-5.47,47.3-14.96,2.78-.96,5.43-1.91,7.93-2.82,1.03-.38,1.64,1.13.64,1.58-3.62,1.61-7.56,3.27-11.79,4.92-18.44,7.21-22.98,6.72-36.71,13.58-5.74,2.87-17.51,9.22-30.15,20.14-5.41,4.67-11.54,10.03-17.83,18.52-8.37,11.31-17.95,30.81-17.74,43.73,0,.08.01.16.03.23,2.47,8.51,6.5,22.26,16.69,35.49,4.84,6.28,17.14,22.14,39.11,28.12,19.35,5.27,44.07,1.96,59.56-11.55,6.13-5.35,17.71-18.31,19.17-17.12.11.09.6.13.57,1.85-.21,13.09,32.48-6.59,39.07-14.09,1.56-1.78,4.68-4.94,7.63-8.35,2.75-3.19,7.12-8.27,11.47-14.6,3.37-4.9,7.59-11.8,11.55-20.75.14-.31.7-.74,1.06-.49,1.28.9,4.08,2.92,4.79,4.66.91,2.22-2.12,6.25-3.23,8.17-.55.95-11.63,19.78-22.6,30.45-4.39,4.27-12.36,8.92-22.36,13.97-8.37,4.22-7.71,2.89-19.22,8.31-13.9,6.55-21.11,11.44-27.1,18.35-.48.56-5.21,6-4.47,6.8,1.32,1.42,17.3-15.15,42.75-26.45,2.06-.91,4.03-1.73,5.9-2.45.99-.39,1.65,1.04.72,1.54-2.67,1.45-5.41,3.02-8.2,4.73-9.95,6.09-16.01,11.2-21.22,15.19-12.56,9.62-27.76,18.73-36.24,22.12-30.61,12.21-74.93-10.12-98.59-39.21ZM144.18,311.22c-10.6,5.93-26.91,4.89-38.64,1.98-7.87-1.95-13.7-4.75-17.56-7.04-.88-.52-.26-1.86.7-1.54,6.38,2.1,17.06,4.68,29.67,4.05,3.49-.17,8.83-.62,15.67-2.56,8.29-2.36,13.64-5.65,16.42-7.71.64-.48,1.53.12,1.33.9-.86,3.37-2.81,9.25-7.6,11.92Z"/><path class="cls-3" d="M487.34,23.92c1.42,0,2.37.33,2.83.99.46.66.69,1.71.69,3.13-5.19,5.19-8.96,11.63-11.3,19.32-2.34,7.69-3.57,16.62-3.67,26.8,0,.31-.26.61-.76.92-.51.31-1.05.53-1.6.69-.56.15-1.1.21-1.6.15-.51-.05-.76-.33-.76-.84,0-.41.02-.92.08-1.53.05-.61.08-1.27.08-1.99,0-2.44-.82-5.24-2.44-8.4-1.63-3.15-3.87-6.19-6.72-9.09-2.85-2.9-6.19-5.35-10-7.33-3.82-1.99-7.92-2.98-12.29-2.98-6.01,0-11.33,1.35-15.96,4.05-4.63,2.7-8.53,6.29-11.68,10.77-3.16,4.48-5.57,9.7-7.25,15.65-1.68,5.96-2.52,12.19-2.52,18.71,0,7.33.99,14.23,2.98,20.7,1.99,6.47,4.76,12.12,8.32,16.95,3.56,4.84,7.87,8.68,12.91,11.53,5.04,2.85,10.56,4.28,16.57,4.28,4.07,0,7.74-.69,11-2.06,3.26-1.37,6.01-3.26,8.25-5.65,2.24-2.39,3.97-5.22,5.19-8.48,1.22-3.26,1.83-6.77,1.83-10.54,0-3.05-.46-6.13-1.37-9.24-.92-3.1-2.19-5.9-3.82-8.4-1.63-2.49-3.51-4.53-5.65-6.11-2.14-1.58-4.48-2.37-7.03-2.37-1.53,0-3.05.18-4.58.53-1.53.36-2.9.92-4.12,1.68-1.22.76-2.19,1.71-2.9,2.83-.71,1.12-1.07,2.5-1.07,4.12,0,1.22.2,2.37.61,3.44.41,1.07.92,1.99,1.53,2.75s1.22,1.37,1.83,1.83c.61.46,1.12.64,1.53.53.51-.1.89.13,1.15.69.25.56.28.94.08,1.15-.51.61-2.24,1.35-5.19,2.21-2.95.87-6.47,1.3-10.54,1.3-3.67,0-6.54-1.17-8.63-3.51-2.09-2.34-3.13-5.04-3.13-8.09,0-1.93.97-3.89,2.9-5.88,1.93-1.99,4.58-3.77,7.94-5.35,3.36-1.58,7.28-2.88,11.76-3.89,4.48-1.02,9.26-1.53,14.36-1.53,5.5,0,10.39.61,14.66,1.83,4.28,1.22,7.89,2.9,10.84,5.04,2.95,2.14,5.19,4.63,6.72,7.48,1.53,2.85,2.29,5.86,2.29,9.01,0,4.89-1.43,9.75-4.28,14.59-2.85,4.84-6.62,9.16-11.3,12.98-4.68,3.82-10.06,6.93-16.11,9.32-6.06,2.39-12.29,3.59-18.71,3.59-9.77,0-18.4-1.32-25.89-3.97-7.48-2.65-13.72-6.36-18.71-11.15-4.99-4.78-8.76-10.44-11.3-16.95-2.55-6.51-3.82-13.69-3.82-21.54,0-8.45,1.73-16.39,5.19-23.83,3.46-7.43,8.2-13.95,14.2-19.55,6.01-5.6,13.08-10,21.23-13.21,8.15-3.21,16.95-4.81,26.42-4.81,7.33,0,13.39.71,18.18,2.14,4.78,1.43,8.65,2.6,11.61,3.51.41-1.02.99-2.47,1.76-4.35.76-1.88,1.63-3.79,2.6-5.73.97-1.93,2.01-3.74,3.13-5.42,1.12-1.68,2.29-2.83,3.51-3.44Z"/><path class="cls-3" d="M543.54,101.66c-.61-3.15-1.32-5.98-2.14-8.48-.82-2.49-1.83-4.58-3.05-6.26-1.22-1.68-2.7-2.95-4.43-3.82-1.73-.86-3.87-1.3-6.41-1.3-2.24,0-4.3.41-6.19,1.22-1.89.82-3.51,1.78-4.89,2.9-1.37,1.12-2.44,2.24-3.21,3.36-.76,1.12-1.2,1.99-1.3,2.6-.1.82-.56,1.22-1.37,1.22-1.43,0-2.75-.51-3.97-1.53-1.22-1.02-1.83-2.24-1.83-3.67,0-.81.1-1.42.31-1.83,2.34-1.32,5.19-2.75,8.55-4.28,3.36-1.53,6.85-2.95,10.46-4.28,3.61-1.32,7.2-2.42,10.77-3.28,3.56-.86,6.77-1.3,9.62-1.3,4.28,0,7.56.61,9.85,1.83s4,2.95,5.12,5.19c1.12,2.24,1.81,4.86,2.06,7.87.25,3,.48,6.24.69,9.7.31,5.19.71,10.21,1.22,15.04.51,4.84,1.27,9.11,2.29,12.83,1.02,3.72,2.32,6.72,3.89,9.01,1.58,2.29,3.54,3.44,5.88,3.44,1.12,0,2.34-.2,3.67-.61,1.32-.41,2.6-.89,3.82-1.45,1.22-.56,2.32-1.12,3.28-1.68.97-.56,1.6-.94,1.91-1.15.92,0,1.47.46,1.68,1.37,0,.51-.1.97-.31,1.37-.21.21-.97.71-2.29,1.53-1.32.82-2.95,1.78-4.89,2.9-1.94,1.12-4.07,2.32-6.41,3.59-2.34,1.27-4.66,2.47-6.95,3.59-2.29,1.12-4.41,2.04-6.34,2.75-1.94.71-3.46,1.07-4.58,1.07-1.32,0-2.47-.53-3.44-1.6-.97-1.07-1.81-2.49-2.52-4.28-.71-1.78-1.32-3.84-1.83-6.19-.51-2.34-.97-4.78-1.37-7.33-1.83,1.53-4.18,3.34-7.03,5.42-2.85,2.09-5.96,4.05-9.32,5.88-3.36,1.83-6.8,3.39-10.31,4.66-3.51,1.27-6.9,1.91-10.16,1.91-2.75,0-5.14-.43-7.18-1.3-2.04-.86-3.74-2.01-5.12-3.44-1.37-1.42-2.39-3.08-3.05-4.96-.66-1.88-.99-3.84-.99-5.88,0-3.26.99-5.93,2.98-8.02,1.99-2.09,5.06-4.25,9.24-6.49,1.93-1.02,4.63-2.37,8.09-4.05,3.46-1.68,7-3.38,10.61-5.12,3.61-1.73,6.97-3.38,10.08-4.96,3.1-1.58,5.37-2.83,6.8-3.74ZM547.97,125.34c-.31-1.73-.61-3.61-.92-5.65-.31-2.04-.61-3.97-.92-5.8-.31-1.83-.59-3.41-.84-4.73-.25-1.32-.43-2.19-.53-2.6-1.63.61-3.46,1.32-5.5,2.14-2.04.82-4.07,1.71-6.11,2.67-2.04.97-3.97,1.94-5.8,2.9-1.83.97-3.36,1.86-4.58,2.67-2.34,1.53-4.12,3.05-5.35,4.58-1.22,1.53-1.83,3.36-1.83,5.5,0,2.95.86,5.55,2.6,7.79,1.73,2.24,4.43,3.36,8.09,3.36,1.93,0,3.94-.36,6.03-1.07,2.09-.71,4.02-1.53,5.8-2.44,1.78-.92,3.33-1.83,4.66-2.75,1.32-.92,2.24-1.63,2.75-2.14.81-.81,1.45-1.5,1.91-2.06.46-.56.63-1.35.53-2.37Z"/><path class="cls-3" d="M633.35,133.58c.61.41.92.92.92,1.53,0,.82-1.17,1.89-3.51,3.21-2.44,1.43-5.68,3.11-9.7,5.04-4.02,1.94-8.02,3.62-11.99,5.04-1.94.71-3.67,1.32-5.19,1.83-1.53.51-2.9.76-4.12.76-1.43,0-3.18-.33-5.27-.99-2.09-.66-3.89-1.45-5.42-2.37-1.22-.81-2.19-1.45-2.9-1.91-.71-.46-1.07-.94-1.07-1.45,0-.41.13-.79.38-1.15.25-.36.48-.79.69-1.3.1-.31.2-.71.31-1.22.1-.51.15-1.02.15-1.53.31-2.54.63-6.24.99-11.07.36-4.83.63-10.18.84-16.04.2-5.85.38-11.91.53-18.18.15-6.26.23-12.09.23-17.49,0-6.62-.03-11.96-.08-16.04-.05-4.07-.18-7.33-.38-9.77-.31-3.36-.71-5.57-1.22-6.64-.51-1.07-1.07-1.86-1.68-2.37-.71-.61-1.4-.99-2.06-1.15-.66-.15-1.27-.25-1.83-.31-.56-.05-1.02-.08-1.37-.08s-.53-.1-.53-.31c0-3.36,1.43-5.04,4.28-5.04,2.14,0,4.66.03,7.56.08,2.9.05,5.32.08,7.25.08,1.22,0,2.52-.08,3.9-.23s2.72-.31,4.05-.46c1.32-.15,2.54-.33,3.67-.53,1.12-.2,1.93-.41,2.44-.61.41-.1.74.05.99.46.25.41.41.92.46,1.53.05.61-.05,1.17-.31,1.68-.26.51-.59.82-.99.92-.61.1-1.14.15-1.6.15s-1.25.21-2.37.61c-.51.21-.97.84-1.37,1.91-.41,1.07-.76,2.75-1.07,5.04-.31,2.29-.61,5.3-.92,9.01-.31,3.72-.61,8.38-.92,13.98-.31,4.48-.53,9.04-.69,13.67-.15,4.63-.31,9.14-.46,13.52-.15,4.38-.25,8.45-.31,12.22-.05,3.77-.08,6.98-.08,9.62,0,2.95.02,5.93.08,8.93.05,3,.33,5.37.84,7.1.51,1.63,1.83,3.16,3.97,4.58,2.14,1.43,4.38,2.14,6.72,2.14,1.83,0,3.72-.25,5.65-.76,1.93-.51,3.72-1.12,5.35-1.83,1.63-.71,3.08-1.42,4.35-2.14,1.27-.71,2.21-1.27,2.83-1.68Z"/><path class="cls-3" d="M647.86,89.75c2.04-1.83,4.33-3.74,6.87-5.73,2.54-1.99,5.22-3.82,8.02-5.5,2.8-1.68,5.73-3.05,8.78-4.12,3.06-1.07,6.16-1.6,9.32-1.6,3.67,0,7.1.59,10.31,1.76,3.21,1.17,6.03,2.88,8.48,5.12,2.44,2.24,4.38,4.91,5.8,8.02,1.43,3.11,2.14,6.59,2.14,10.46,0,7.84-1.35,15.04-4.05,21.61-2.7,6.57-5.86,12.32-9.47,17.26-3.62,4.94-7.21,9.04-10.77,12.29-3.57,3.26-6.21,5.4-7.94,6.41-.51.31-1.02.2-1.53-.31s-.51-1.07,0-1.68c.81-.61,2.06-2.11,3.74-4.51s3.38-5.42,5.12-9.09c1.73-3.67,3.26-7.84,4.58-12.52,1.32-4.68,1.99-9.72,1.99-15.12,0-4.48-.53-8.45-1.6-11.91-1.07-3.46-2.52-6.36-4.35-8.71-1.83-2.34-3.95-4.12-6.34-5.35-2.39-1.22-4.96-1.83-7.71-1.83-1.83,0-3.77.28-5.8.84-2.04.56-3.92,1.35-5.65,2.37-1.83,1.12-3.62,2.5-5.35,4.12-1.73,1.63-3,3.31-3.82,5.04-.21.41-.38.79-.53,1.15-.15.36-.31.87-.46,1.53-.15.66-.31,1.5-.46,2.52-.15,1.02-.28,2.39-.38,4.12-.31,2.95-.53,5.83-.69,8.63-.15,2.8-.23,6.14-.23,10,0,4.99.31,8.83.92,11.53.61,2.7,2.39,4.25,5.35,4.66.31,0,.66-.02,1.07-.08.41-.05.86-.13,1.37-.23.41-.1.92-.25,1.53-.46.31,0,.53.15.69.46s.23.61.23.92-.56.76-1.68,1.37c-1.12.61-2.55,1.25-4.28,1.91-1.73.66-3.64,1.32-5.73,1.99-2.09.66-4.05,1.3-5.88,1.91-1.94.51-3.59.97-4.96,1.37-1.37.41-2.32.61-2.83.61-3.05,0-4.58-1.17-4.58-3.51,0-.51.25-1.47.76-2.9.51-1.42.92-3.61,1.22-6.57.41-4.28.81-8.98,1.22-14.13.41-5.14.74-10.31.99-15.5.25-5.19.46-10.28.61-15.27.15-4.99.23-9.47.23-13.44,0-7.33-.13-13.54-.38-18.63-.25-5.09-.48-8.71-.69-10.84-.31-2.65-.61-4.4-.92-5.27-.31-.86-.66-1.65-1.07-2.37-.51-.92-1.15-1.55-1.91-1.91-.76-.36-1.48-.58-2.14-.69-.66-.1-1.22-.13-1.68-.08-.46.05-.69-.02-.69-.23,0-1.42.46-2.6,1.37-3.51.92-.92,2.14-1.37,3.67-1.37,2.95,0,6.01-.05,9.16-.15,3.16-.1,6.06-.25,8.71-.46,2.24-.2,4.3-.51,6.19-.92,1.88-.41,3.13-.71,3.74-.92.81-.1,1.25.03,1.3.38.05.36.08.99.08,1.91,0,.61-.25,1.07-.76,1.37-.51.31-1.07.56-1.68.76-.61.21-1.2.38-1.76.53-.56.15-.94.38-1.15.69-.41.61-.82,2.5-1.22,5.65-.41,3.16-.79,7.15-1.15,11.99-.36,4.84-.66,10.21-.92,16.11-.25,5.91-.43,11.86-.53,17.87l.15.15Z"/><path class="cls-3" d="M779.66,136.94c-1.12.92-2.65,2.14-4.58,3.67-1.94,1.53-4.18,3.05-6.72,4.58-2.55,1.53-5.35,2.83-8.4,3.89-3.06,1.07-6.26,1.6-9.62,1.6-5.09,0-9.62-.89-13.59-2.67-3.97-1.78-7.31-4.17-10-7.18-2.7-3-4.74-6.54-6.11-10.61-1.37-4.07-2.06-8.4-2.06-12.98,0-5.4.81-10.18,2.44-14.36,1.63-4.17,3.64-7.81,6.03-10.92,2.39-3.1,4.96-5.7,7.71-7.79,2.75-2.09,5.24-3.74,7.48-4.96,1.02-.61,2.32-1.27,3.9-1.99,1.58-.71,3.31-1.37,5.19-1.99,1.88-.61,3.92-1.15,6.11-1.6,2.19-.46,4.45-.69,6.8-.69,4.38,0,8.63.56,12.75,1.68,4.12,1.12,7.76,2.88,10.92,5.27,3.16,2.39,5.7,5.47,7.64,9.24,1.93,3.77,2.9,8.3,2.9,13.59,0,4.28-.79,8.3-2.37,12.07-1.58,3.77-3.44,7.13-5.58,10.08-2.14,2.95-4.25,5.47-6.34,7.56-2.09,2.09-3.59,3.59-4.51,4.51ZM762.4,139.39c5.8,0,10.26-2.19,13.36-6.57,3.11-4.38,4.66-11.1,4.66-20.16,0-4.58-.64-8.83-1.91-12.75-1.27-3.92-3.06-7.36-5.35-10.31-2.29-2.95-4.96-5.27-8.02-6.95-3.06-1.68-6.36-2.52-9.93-2.52-2.55,0-4.96.66-7.25,1.99-2.29,1.32-4.3,3.23-6.03,5.73-1.73,2.5-3.11,5.52-4.12,9.09-1.02,3.57-1.53,7.59-1.53,12.07,0,4.79.74,9.06,2.21,12.83,1.47,3.77,3.44,6.95,5.88,9.55,2.44,2.6,5.22,4.58,8.32,5.96,3.1,1.37,6.34,2.06,9.7,2.06Z"/><path class="cls-3" d="M508.57,312.71c0,2.04-.36,4.33-1.07,6.87-.71,2.54-1.71,4.96-2.98,7.25-1.27,2.29-2.83,4.2-4.66,5.73s-3.87,2.29-6.11,2.29c-1.22,0-2.42-.33-3.59-.99-1.17-.66-1.76-1.55-1.76-2.67s.36-1.99,1.07-2.6c.71-.61,1.47-.92,2.29-.92.61,0,1.04.13,1.3.38.25.25.41.58.46.99.05.41.1.79.15,1.15.05.36.23.69.53.99,1.42-.1,2.75-.69,3.97-1.76,1.22-1.07,1.83-2.67,1.83-4.81s-.76-4.56-2.29-7.25c-1.53-2.7-4.1-5.32-7.71-7.87-3.62-2.55-8.38-4.86-14.28-6.95-5.91-2.09-13.24-3.59-21.99-4.51-2.34-.51-4.73-1.05-7.18-1.6-2.44-.56-4.84-.99-7.18-1.3-.71.1-1.37.15-1.99.15h-2.14c-8.04,0-15.43-1.4-22.15-4.2-6.72-2.8-12.47-6.67-17.26-11.61-4.79-4.94-8.53-10.84-11.23-17.72-2.7-6.87-4.05-14.43-4.05-22.68s1.65-15.43,4.96-22.45c3.31-7.03,7.74-13.21,13.29-18.56,5.55-5.35,11.91-9.57,19.09-12.68,7.18-3.1,14.59-4.66,22.22-4.66,6.92,0,13.49,1.25,19.7,3.74,6.21,2.5,11.66,6.03,16.34,10.61,4.68,4.58,8.4,10.13,11.15,16.65,2.75,6.52,4.12,13.8,4.12,21.84,0,5.8-.92,11.51-2.75,17.11-1.83,5.6-4.28,10.82-7.33,15.65-3.05,4.84-6.59,9.19-10.61,13.06-4.02,3.87-8.17,6.98-12.45,9.32,1.73.31,4.25.61,7.56.92,3.31.31,6.95.69,10.92,1.15,3.97.46,8.02,1.02,12.14,1.68,4.12.66,7.87,1.47,11.23,2.44,3.36.97,6.11,2.16,8.25,3.59,2.14,1.42,3.21,3.1,3.21,5.04,0,1.22-.28,2.54-.84,3.97-.56,1.42-1.3,2.75-2.21,3.97v1.22ZM438.92,289.34c3.97,0,7.76-1.09,11.38-3.28,3.61-2.19,6.82-5.32,9.62-9.39,2.8-4.07,5.01-9.06,6.64-14.97,1.63-5.9,2.44-12.57,2.44-20.01,0-8.76-.92-16.5-2.75-23.22-1.83-6.72-4.3-12.37-7.41-16.95-3.11-4.58-6.8-8.04-11.07-10.39-4.28-2.34-8.86-3.51-13.75-3.51-4.28,0-8.27,1.05-11.99,3.13-3.72,2.09-6.95,5.17-9.7,9.24-2.75,4.07-4.89,9.19-6.41,15.35-1.53,6.16-2.29,13.26-2.29,21.31,0,9.57,1.3,17.69,3.89,24.36,2.6,6.67,5.73,12.12,9.39,16.34,3.67,4.23,7.51,7.28,11.53,9.16,4.02,1.89,7.51,2.83,10.46,2.83Z"/><path class="cls-3" d="M499.55,229.62c-.82-.2-1.2-.61-1.15-1.22.05-.61.43-.97,1.15-1.07.31-.1,1.27-.46,2.9-1.07,1.63-.61,3.59-1.32,5.88-2.14,2.29-.81,4.68-1.68,7.18-2.6,2.49-.92,4.71-1.68,6.64-2.29,1.22-.41,2.06-.69,2.52-.84s.84-.23,1.15-.23.66.13,1.07.38c.41.26.51.64.31,1.15-.31.82-.64,2.75-.99,5.8-.36,3.05-.69,6.44-.99,10.16-.31,3.72-.59,7.41-.84,11.07-.26,3.67-.38,6.57-.38,8.71,0,8.15,1.73,14.43,5.19,18.86,3.46,4.43,8.86,6.64,16.19,6.64,3.77,0,6.9-.76,9.39-2.29,2.49-1.53,4.4-3.31,5.73-5.35.92-1.32,1.53-4.22,1.83-8.71,0-.81.02-1.88.08-3.21.05-1.32.1-2.72.15-4.2.05-1.47.1-2.9.15-4.28.05-1.37.08-2.52.08-3.44.1-4.68-.03-9.04-.38-13.06-.36-4.02-.89-7-1.6-8.93-.31-1.22-.92-1.83-1.83-1.83-.61,0-1.2.03-1.76.08-.56.05-.89-.38-.99-1.3,0-.31.31-.63.92-.99.61-.36,1.78-.89,3.51-1.6,1.63-.61,3.44-1.22,5.42-1.83,1.99-.61,3.94-1.12,5.88-1.53,1.93-.41,3.67-.69,5.19-.84,1.53-.15,2.65-.08,3.36.23,0,.1.08.23.23.38.15.15.28.48.38.99.2.61.08,2.52-.38,5.73-.46,3.21-.94,8.43-1.45,15.65-.41,4.99-.76,9.83-1.07,14.51-.31,4.68-.46,8.25-.46,10.69,0,4.79.89,8.58,2.67,11.38,1.78,2.8,4,4.2,6.64,4.2,1.73,0,3.38-.36,4.96-1.07,1.58-.71,2.72-1.32,3.44-1.83.81,0,1.25.36,1.3,1.07.05.71-.13,1.17-.53,1.37-1.53,1.02-3.64,2.29-6.34,3.82-2.7,1.53-5.5,2.98-8.4,4.35-2.9,1.37-5.68,2.55-8.32,3.51-2.65.97-4.79,1.45-6.41,1.45-.82,0-1.55-.53-2.21-1.6-.66-1.07-1.2-2.37-1.6-3.89-.41-1.53-.71-3.1-.92-4.73-.2-1.63-.31-3.05-.31-4.28-2.14,1.53-4.58,3.13-7.33,4.81-2.75,1.68-5.6,3.26-8.55,4.73-2.95,1.48-5.88,2.67-8.78,3.59-2.9.92-5.57,1.37-8.02,1.37-6.21,0-11.3-1.65-15.27-4.96-3.97-3.31-5.96-7.61-5.96-12.91,0-1.12.1-2.8.31-5.04.2-2.24.46-4.78.76-7.64.31-2.85.56-5.9.76-9.16.2-3.26.31-6.41.31-9.47,0-4.68-.74-8.27-2.21-10.77-1.48-2.49-3.39-3.89-5.73-4.2l-2.44-.31Z"/><path class="cls-3" d="M666.49,274.83c-1.12,1.22-2.85,2.9-5.19,5.04-2.34,2.14-5.17,4.28-8.48,6.41-3.31,2.14-7,3.97-11.07,5.5-4.07,1.53-8.4,2.29-12.98,2.29-4.18,0-8.25-.64-12.22-1.91-3.97-1.27-7.54-3.21-10.69-5.8-3.16-2.6-5.68-5.9-7.56-9.93-1.88-4.02-2.82-8.83-2.82-14.43,0-4.58.31-8.53.92-11.84.61-3.31,1.42-6.21,2.44-8.71,1.02-2.49,2.16-4.63,3.44-6.41,1.27-1.78,2.57-3.38,3.9-4.81,1.63-1.83,3.61-3.56,5.96-5.19,2.34-1.63,4.86-3.1,7.56-4.43,2.7-1.32,5.55-2.37,8.55-3.13,3-.76,6.03-1.15,9.09-1.15,5.5,0,9.8.92,12.91,2.75,3.1,1.83,4.66,4.38,4.66,7.64,0,2.04-.61,3.92-1.83,5.65,1.02-.31,2.32-.81,3.89-1.53,1.58-.71,3.18-1.45,4.81-2.21,1.63-.76,3.08-1.45,4.35-2.06,1.27-.61,2.11-1.07,2.52-1.37.2-.2.43-.28.69-.23.25.05.38.23.38.53,0,1.32-.25,2.42-.76,3.28-.51.87-1.12,1.55-1.83,2.06-1.63,1.02-3.97,2.29-7.03,3.82-3.05,1.53-6.44,3.13-10.16,4.81-3.72,1.68-7.56,3.36-11.53,5.04-3.97,1.68-7.71,3.28-11.23,4.81-3.51,1.53-6.57,2.88-9.16,4.05-2.6,1.17-4.35,2.01-5.27,2.52,0,3.46.69,6.7,2.06,9.7,1.37,3,3.28,5.63,5.73,7.87,2.44,2.24,5.37,4,8.78,5.27,3.41,1.27,7.15,1.91,11.23,1.91,3.67,0,6.97-.38,9.93-1.15,2.95-.76,5.45-1.63,7.48-2.6,2.04-.97,3.64-1.83,4.81-2.6,1.17-.76,1.81-1.15,1.91-1.15.41,0,.81.18,1.22.53.41.36.61.74.61,1.15ZM612.73,251.46c1.73-.61,3.69-1.35,5.88-2.21,2.19-.86,4.33-1.81,6.41-2.83,2.09-1.02,3.99-1.99,5.73-2.9,1.73-.92,3.05-1.73,3.97-2.44,1.83-1.32,2.75-3.56,2.75-6.72,0-1.22-.23-2.49-.69-3.82-.46-1.32-1.15-2.52-2.06-3.59-.92-1.07-2.04-1.93-3.36-2.6-1.32-.66-2.8-.99-4.43-.99-1.43,0-2.95.48-4.58,1.45-1.63.97-3.16,2.55-4.58,4.73-1.43,2.19-2.62,5.09-3.59,8.71-.97,3.62-1.45,8.02-1.45,13.21Z"/><path class="cls-3" d="M663.89,182.89c0-2.24.53-3.56,1.6-3.97,1.07-.41,2.21-.61,3.44-.61h9.39c2.8,0,5.35-.02,7.64-.08,2.29-.05,4.43-.2,6.42-.46,1.99-.25,3.84-.69,5.57-1.3.81-.31,1.25-.15,1.3.46.05.61.08,1.17.08,1.68,0,.61-.31,1.1-.92,1.45-.61.36-1.3.64-2.06.84-.76.21-1.5.36-2.21.46-.71.1-1.17.15-1.37.15-.31,1.02-.66,3.34-1.07,6.95-.41,3.62-.84,7.89-1.3,12.83-.46,4.94-.84,10.18-1.15,15.73-.31,5.55-.46,10.77-.46,15.65.92-1.02,2.44-2.44,4.58-4.28,2.14-1.83,4.66-3.64,7.56-5.42,2.9-1.78,6.13-3.33,9.7-4.66,3.56-1.32,7.28-1.99,11.15-1.99s7.46.61,10.77,1.83c3.31,1.22,6.19,3,8.63,5.35,2.44,2.34,4.35,5.22,5.73,8.63,1.37,3.41,2.06,7.25,2.06,11.53,0,3.57-.69,7.25-2.06,11.07-1.37,3.82-3.26,7.59-5.65,11.3-2.39,3.72-5.27,7.25-8.63,10.61-3.36,3.36-7,6.31-10.92,8.86-3.92,2.55-8.09,4.58-12.52,6.11-4.43,1.53-8.89,2.29-13.36,2.29-5.09,0-9.27-.56-12.52-1.68-3.26-1.12-5.86-2.39-7.79-3.82-1.94-1.42-3.31-2.77-4.12-4.05-.82-1.27-1.27-2.06-1.37-2.37.31-.92.66-3.38,1.07-7.41.41-4.02.79-8.96,1.15-14.82.36-5.85.69-12.3.99-19.32s.46-13.9.46-20.62c0-5.9-.1-10.87-.31-14.89-.21-4.02-.48-7.33-.84-9.93-.36-2.6-.79-4.63-1.3-6.11-.51-1.47-1.07-2.62-1.68-3.44-1.22-1.53-2.55-2.34-3.97-2.44l-1.68-.15ZM688.48,244.74c-.21,1.73-.36,3.82-.46,6.26-.1,2.44-.15,4.89-.15,7.33s.05,4.63.15,6.57c.1,1.94.2,3.16.31,3.67.31,1.53,1.02,3.16,2.14,4.89,1.12,1.73,2.6,3.34,4.43,4.81,1.83,1.48,3.94,2.7,6.34,3.67,2.39.97,5.01,1.45,7.87,1.45,6.41,0,11.73-2.24,15.96-6.72,4.22-4.48,6.34-11.35,6.34-20.62,0-5.19-.74-9.6-2.21-13.21-1.48-3.61-3.34-6.52-5.57-8.71-2.24-2.19-4.66-3.79-7.25-4.81-2.6-1.02-4.96-1.53-7.1-1.53-2.95,0-5.42.43-7.41,1.3-1.98.87-3.74,1.86-5.27,2.98-2.55,1.94-4.43,3.87-5.65,5.8-1.22,1.94-2.04,4.23-2.44,6.87Z"/><path class="cls-3" d="M828.08,227.79c-1.12.92-2.44,2.06-3.97,3.44-1.53,1.37-3.13,2.7-4.81,3.97-1.68,1.27-3.39,2.37-5.12,3.28-1.73.92-3.41,1.37-5.04,1.37-1.43,0-2.7-.33-3.82-.99-1.12-.66-2.17-1.37-3.13-2.14-.97-.76-1.91-1.47-2.83-2.14-.92-.66-1.89-.99-2.9-.99-2.75,0-5.07,1.12-6.95,3.36-1.89,2.24-3.41,5.09-4.58,8.55-1.17,3.46-2.04,7.23-2.6,11.3-.56,4.07-.84,7.99-.84,11.76,0,3.16.13,5.73.38,7.71.25,1.99.63,3.57,1.15,4.73.51,1.17,1.2,1.96,2.06,2.37.86.41,1.91.61,3.13.61,1.32,0,2.75-.2,4.28-.61.31-.1.53.1.69.61.15.51.23.92.23,1.22,0,.21-.15.43-.46.69-.31.26-.51.38-.61.38-2.24.92-4.53,1.91-6.87,2.98-2.34,1.07-4.28,1.96-5.8,2.67-1.43.61-3.13,1.27-5.12,1.99-1.99.71-3.69,1.07-5.12,1.07-1.63,0-2.98-.26-4.05-.76-1.07-.51-1.6-1.02-1.6-1.53s.13-.97.38-1.37c.25-.41.48-1.17.69-2.29.2-1.53.43-3.33.69-5.42.25-2.09.51-4.35.76-6.8.25-2.44.46-4.96.61-7.56.15-2.6.23-5.17.23-7.71,0-5.7-.18-10.54-.53-14.51-.36-3.97-.99-7.18-1.91-9.62-.92-2.44-2.16-4.2-3.74-5.27-1.58-1.07-3.59-1.6-6.03-1.6h-1.37c-.41,0-.82.05-1.22.15-.61,0-.92-.31-.92-.92s.31-1.07.92-1.37c1.12-.71,2.85-1.76,5.19-3.13,2.34-1.37,4.76-2.7,7.25-3.97,2.49-1.27,4.91-2.42,7.25-3.44,2.34-1.02,4.07-1.53,5.19-1.53,1.32,0,2.44.43,3.36,1.3.92.87,1.6,1.96,2.06,3.28.46,1.32.79,2.83.99,4.51.2,1.68.31,3.34.31,4.96,0,1.22-.03,2.5-.08,3.82-.05,1.32-.08,2.75-.08,4.28,4.58-6.72,8.71-11.94,12.37-15.66,3.67-3.72,7.13-5.57,10.39-5.57,1.22,0,2.42.51,3.59,1.53,1.17,1.02,2.42,2.16,3.74,3.44,1.32,1.27,2.7,2.42,4.12,3.44,1.43,1.02,2.9,1.53,4.43,1.53,1.32,0,2.29-.15,2.9-.46s1.12-.56,1.53-.76c.81,0,1.22.56,1.22,1.68v.15Z"/><path class="cls-3" d="M866.26,245.2c-.61-3.15-1.33-5.98-2.14-8.48-.82-2.49-1.83-4.58-3.05-6.26-1.22-1.68-2.7-2.95-4.43-3.82-1.73-.86-3.87-1.3-6.41-1.3-2.24,0-4.3.41-6.19,1.22-1.89.82-3.51,1.78-4.89,2.9-1.37,1.12-2.44,2.24-3.21,3.36-.76,1.12-1.2,1.99-1.3,2.6-.1.82-.56,1.22-1.37,1.22-1.43,0-2.75-.51-3.97-1.53-1.22-1.02-1.83-2.24-1.83-3.67,0-.81.1-1.42.31-1.83,2.34-1.32,5.19-2.75,8.55-4.28s6.85-2.95,10.46-4.28c3.61-1.32,7.2-2.42,10.77-3.28,3.56-.86,6.77-1.3,9.62-1.3,4.28,0,7.56.61,9.85,1.83,2.29,1.22,4,2.95,5.12,5.19,1.12,2.24,1.81,4.86,2.06,7.87.25,3,.48,6.24.69,9.7.31,5.19.71,10.21,1.22,15.04.51,4.84,1.27,9.11,2.29,12.83,1.02,3.72,2.32,6.72,3.9,9.01,1.58,2.29,3.54,3.44,5.88,3.44,1.12,0,2.34-.2,3.67-.61,1.32-.41,2.6-.89,3.82-1.45,1.22-.56,2.32-1.12,3.28-1.68.97-.56,1.6-.94,1.91-1.15.92,0,1.47.46,1.68,1.37,0,.51-.1.97-.31,1.37-.21.21-.97.71-2.29,1.53-1.32.82-2.95,1.78-4.89,2.9-1.94,1.12-4.07,2.32-6.41,3.59-2.34,1.27-4.66,2.47-6.95,3.59-2.29,1.12-4.41,2.04-6.34,2.75-1.94.71-3.46,1.07-4.58,1.07-1.32,0-2.47-.53-3.44-1.6-.97-1.07-1.81-2.49-2.52-4.28-.71-1.78-1.32-3.84-1.83-6.19-.51-2.34-.97-4.78-1.37-7.33-1.83,1.53-4.18,3.34-7.03,5.42-2.85,2.09-5.96,4.05-9.32,5.88-3.36,1.83-6.8,3.39-10.31,4.66-3.51,1.27-6.9,1.91-10.16,1.91-2.75,0-5.14-.43-7.18-1.3-2.04-.86-3.74-2.01-5.12-3.44-1.37-1.42-2.39-3.08-3.05-4.96-.66-1.88-.99-3.84-.99-5.88,0-3.26.99-5.93,2.98-8.02,1.98-2.09,5.06-4.25,9.24-6.49,1.93-1.02,4.63-2.37,8.09-4.05,3.46-1.68,7-3.38,10.61-5.12,3.61-1.73,6.97-3.38,10.08-4.96,3.1-1.58,5.37-2.83,6.8-3.74ZM870.69,268.87c-.31-1.73-.61-3.61-.92-5.65-.31-2.04-.61-3.97-.92-5.8-.31-1.83-.59-3.41-.84-4.73-.26-1.32-.43-2.19-.53-2.6-1.63.61-3.46,1.32-5.5,2.14-2.04.82-4.07,1.71-6.11,2.67-2.04.97-3.97,1.94-5.8,2.9-1.83.97-3.36,1.86-4.58,2.67-2.34,1.53-4.12,3.05-5.35,4.58-1.22,1.53-1.83,3.36-1.83,5.5,0,2.95.86,5.55,2.6,7.79,1.73,2.24,4.43,3.36,8.09,3.36,1.93,0,3.94-.36,6.03-1.07,2.09-.71,4.02-1.53,5.8-2.44,1.78-.92,3.33-1.83,4.66-2.75,1.32-.92,2.24-1.63,2.75-2.14.81-.81,1.45-1.5,1.91-2.06.46-.56.63-1.35.53-2.37Z"/><path class="cls-3" d="M962.63,280.48c-.92.92-2.39,2.14-4.43,3.67-2.04,1.53-4.43,3.03-7.18,4.51-2.75,1.48-5.73,2.75-8.93,3.82s-6.44,1.6-9.7,1.6-6.72-.76-10.08-2.29c-3.36-1.53-6.39-3.74-9.09-6.64-2.7-2.9-4.86-6.39-6.49-10.46-1.63-4.07-2.44-8.65-2.44-13.75,0-6.62,1.15-12.62,3.44-18.02,2.29-5.4,5.65-9.98,10.08-13.75,4.43-3.77,9.82-6.67,16.19-8.71,6.36-2.04,13.67-3.05,21.92-3.05h4.12c1.32,0,2.54.05,3.67.15v-4.96c0-2.39-.03-4.86-.08-7.41-.05-2.54-.1-4.89-.15-7.03-.05-2.14-.08-3.46-.08-3.97-.41-4.07-1.1-6.92-2.06-8.55-.97-1.63-2.93-2.44-5.88-2.44-.41,0-.64-.46-.69-1.37-.05-.92.28-1.63.99-2.14.81-.51,1.73-.89,2.75-1.15,1.02-.25,2.54-.38,4.58-.38,3.87,0,7.1-.02,9.7-.08,2.6-.05,4.73-.15,6.41-.31,1.68-.15,3.03-.36,4.05-.61,1.02-.25,1.88-.53,2.6-.84.51-.1.94.03,1.3.38.36.36.61.82.76,1.37.15.56.18,1.1.08,1.6-.1.51-.41.82-.92.92-1.12.21-1.96.43-2.52.69-.56.26-1.1.74-1.6,1.45-.51.71-.97,2.6-1.37,5.65-.41,3.05-.82,6.82-1.22,11.3-.41,4.48-.76,9.45-1.07,14.89-.31,5.45-.56,10.92-.76,16.42-.21,5.5-.38,10.84-.53,16.04-.15,5.19-.23,9.72-.23,13.59,0,7.43.81,12.91,2.44,16.42,1.63,3.51,4.12,5.27,7.48,5.27,1.22,0,2.57-.2,4.05-.61,1.47-.41,2.85-.89,4.12-1.45,1.27-.56,2.44-1.12,3.51-1.68,1.07-.56,1.86-1.04,2.37-1.45.51-.41.97-.15,1.37.76.41.92.36,1.53-.15,1.83-1.22.71-3.13,1.76-5.73,3.13s-5.48,2.83-8.63,4.35c-3.87,1.94-7.79,3.67-11.76,5.19-3.97,1.53-7.18,2.29-9.62,2.29-1.83,0-3.08-.31-3.74-.92-.66-.61-.99-1.58-.99-2.9v-2.06c0-.97.02-1.99.08-3.05.05-1.07.08-2.09.08-3.05v-2.21ZM960.65,275.29c.81-1.12,1.42-2.42,1.83-3.89.41-1.47.71-3.49.92-6.03.2-2.14.31-4.76.31-7.87v-8.17c0-2.34-.03-4.83-.08-7.48-.05-2.65-.13-4.48-.23-5.5-.21-1.73-.92-3.36-2.14-4.89-1.22-1.53-2.8-2.85-4.73-3.97-1.94-1.12-4.2-2.01-6.8-2.67-2.6-.66-5.32-.99-8.17-.99s-5.35.46-7.79,1.37c-2.44.92-4.56,2.39-6.34,4.43-1.78,2.04-3.18,4.66-4.2,7.87-1.02,3.21-1.53,7.15-1.53,11.84s.66,9.14,1.99,13.06c1.32,3.92,3.16,7.31,5.5,10.16,2.34,2.85,5.14,5.07,8.4,6.64,3.26,1.58,6.82,2.37,10.69,2.37,1.53,0,2.95-.23,4.28-.69,1.32-.46,2.52-1.02,3.59-1.68,1.07-.66,2.01-1.35,2.83-2.06.81-.71,1.37-1.32,1.68-1.83Z"/><path class="cls-3" d="M1055.8,280.48c-1.12.92-2.65,2.14-4.58,3.67-1.94,1.53-4.18,3.05-6.72,4.58-2.55,1.53-5.35,2.83-8.4,3.89-3.05,1.07-6.26,1.6-9.62,1.6-5.09,0-9.62-.89-13.59-2.67-3.97-1.78-7.31-4.17-10-7.18-2.7-3-4.73-6.54-6.11-10.61-1.37-4.07-2.06-8.4-2.06-12.98,0-5.4.81-10.18,2.44-14.36,1.63-4.17,3.64-7.81,6.03-10.92,2.39-3.1,4.96-5.7,7.71-7.79,2.75-2.09,5.24-3.74,7.48-4.96,1.02-.61,2.32-1.27,3.89-1.99,1.58-.71,3.31-1.37,5.19-1.99,1.88-.61,3.92-1.15,6.11-1.6,2.19-.46,4.45-.69,6.8-.69,4.38,0,8.63.56,12.75,1.68,4.12,1.12,7.76,2.88,10.92,5.27,3.16,2.39,5.7,5.47,7.64,9.24,1.93,3.77,2.9,8.3,2.9,13.59,0,4.28-.79,8.3-2.37,12.07-1.58,3.77-3.44,7.13-5.57,10.08-2.14,2.95-4.25,5.47-6.34,7.56-2.09,2.09-3.59,3.59-4.51,4.51ZM1038.54,282.93c5.8,0,10.26-2.19,13.36-6.57,3.1-4.38,4.66-11.1,4.66-20.16,0-4.58-.64-8.83-1.91-12.75-1.27-3.92-3.05-7.36-5.35-10.31-2.29-2.95-4.96-5.27-8.02-6.95-3.05-1.68-6.36-2.52-9.93-2.52-2.55,0-4.96.66-7.25,1.99-2.29,1.32-4.3,3.23-6.03,5.73-1.73,2.5-3.11,5.52-4.12,9.09-1.02,3.57-1.53,7.59-1.53,12.07,0,4.79.74,9.06,2.21,12.83,1.47,3.77,3.44,6.95,5.88,9.55,2.44,2.6,5.22,4.58,8.32,5.96,3.1,1.37,6.34,2.06,9.7,2.06Z"/></g></svg>